<mxfile host="drawio-plugin" modified="2024-11-24T17:25:03.315Z" agent="Mozilla/5.0 (Windows NT 10.0; Win64; x64) AppleWebKit/537.36 (KHTML, like Gecko) Chrome/122.0.0.0 Safari/537.36" etag="-bpEdRNyv36EWuv4ongL" version="22.1.22" type="embed">
  <diagram id="Us82pt0M0TMXCUUHgqrs" name="Page-1">
    <mxGraphModel dx="1111" dy="869" grid="1" gridSize="10" guides="1" tooltips="1" connect="1" arrows="1" fold="1" page="1" pageScale="1" pageWidth="850" pageHeight="1100" math="0" shadow="0">
      <root>
        <mxCell id="0" />
        <mxCell id="1" parent="0" />
        <mxCell id="3" value="&lt;b style=&quot;background-color: initial;&quot;&gt;Infraescture&lt;/b&gt;" style="html=1;dropTarget=0;whiteSpace=wrap;aspect=fixed;container=1;align=center;horizontal=1;verticalAlign=top;" parent="1" vertex="1">
          <mxGeometry x="180" y="170" width="662.86" height="232" as="geometry" />
        </mxCell>
        <mxCell id="4" value="Interface Adapters" style="html=1;dropTarget=0;whiteSpace=wrap;aspect=fixed;container=1;align=center;horizontal=1;verticalAlign=top;" parent="1" vertex="1">
          <mxGeometry x="190" y="438" width="577.14" height="202" as="geometry" />
        </mxCell>
        <mxCell id="5" value="Entities/Core/Domain" style="html=1;dropTarget=0;whiteSpace=wrap;aspect=fixed;container=1;align=center;horizontal=1;verticalAlign=top;" parent="1" vertex="1">
          <mxGeometry x="10" y="930" width="1228.57" height="430" as="geometry" />
        </mxCell>
        <mxCell id="8" value="&amp;lt;&amp;lt;controller&amp;gt;&amp;gt;&lt;br&gt;XController" style="rounded=0;whiteSpace=wrap;html=1;" parent="1" vertex="1">
          <mxGeometry x="270.72" y="520" width="195" height="90" as="geometry" />
        </mxCell>
        <mxCell id="34" style="edgeStyle=orthogonalEdgeStyle;rounded=0;orthogonalLoop=1;jettySize=auto;html=1;exitX=0.5;exitY=1;exitDx=0;exitDy=0;" parent="1" edge="1">
          <mxGeometry relative="1" as="geometry">
            <mxPoint x="320" y="330" as="sourcePoint" />
            <mxPoint x="320" y="330" as="targetPoint" />
          </mxGeometry>
        </mxCell>
        <mxCell id="38" value="" style="endArrow=none;dashed=1;html=1;dashPattern=1 3;strokeWidth=2;rounded=0;entryX=0.434;entryY=1.006;entryDx=0;entryDy=0;exitX=0.46;exitY=-0.026;exitDx=0;exitDy=0;exitPerimeter=0;startArrow=classic;startFill=1;entryPerimeter=0;" parent="1" source="8" target="76" edge="1">
          <mxGeometry width="50" height="50" relative="1" as="geometry">
            <mxPoint x="364.795" y="559.01" as="sourcePoint" />
            <mxPoint x="360.2" y="310" as="targetPoint" />
          </mxGeometry>
        </mxCell>
        <mxCell id="43" value="IRepositoriesY" style="rounded=1;whiteSpace=wrap;html=1;" parent="1" vertex="1">
          <mxGeometry x="750" y="970" width="120" height="60" as="geometry" />
        </mxCell>
        <mxCell id="46" value="Aggregates" style="html=1;dropTarget=0;whiteSpace=wrap;aspect=fixed;container=1;align=center;horizontal=1;verticalAlign=top;" parent="1" vertex="1">
          <mxGeometry x="225.72" y="960" width="372.16" height="130.25" as="geometry" />
        </mxCell>
        <mxCell id="48" value="&amp;lt;&amp;lt;Root&amp;gt;&amp;gt;&lt;br&gt;X" style="rounded=0;whiteSpace=wrap;html=1;" parent="1" vertex="1">
          <mxGeometry x="345.72" y="982.63" width="115" height="34.75" as="geometry" />
        </mxCell>
        <mxCell id="49" value="&amp;lt;&amp;lt;Entity&amp;gt;&amp;gt;&lt;br&gt;A" style="rounded=0;whiteSpace=wrap;html=1;" parent="1" vertex="1">
          <mxGeometry x="345.72" y="1040" width="120" height="30" as="geometry" />
        </mxCell>
        <mxCell id="50" value="Value Objects" style="html=1;dropTarget=0;whiteSpace=wrap;aspect=fixed;container=1;align=center;horizontal=1;verticalAlign=top;" parent="1" vertex="1">
          <mxGeometry x="168.59" y="1180" width="457.14" height="160" as="geometry" />
        </mxCell>
        <mxCell id="51" value="&amp;lt;&amp;lt;Value Object&amp;gt;&amp;gt;&lt;br&gt;L" style="rounded=1;whiteSpace=wrap;html=1;" parent="1" vertex="1">
          <mxGeometry x="225.72" y="1220" width="120" height="60" as="geometry" />
        </mxCell>
        <mxCell id="52" value="&amp;lt;&amp;lt;Value Object&amp;gt;&amp;gt;&lt;br&gt;K" style="rounded=1;whiteSpace=wrap;html=1;" parent="1" vertex="1">
          <mxGeometry x="425" y="1230" width="120" height="60" as="geometry" />
        </mxCell>
        <mxCell id="53" value="" style="endArrow=none;html=1;rounded=0;entryX=0.25;entryY=1;entryDx=0;entryDy=0;exitX=0.75;exitY=0;exitDx=0;exitDy=0;startArrow=classic;startFill=1;" parent="1" source="51" target="49" edge="1">
          <mxGeometry width="50" height="50" relative="1" as="geometry">
            <mxPoint x="510" y="980" as="sourcePoint" />
            <mxPoint x="560" y="930" as="targetPoint" />
          </mxGeometry>
        </mxCell>
        <mxCell id="54" value="" style="endArrow=none;html=1;rounded=0;entryX=0.75;entryY=1;entryDx=0;entryDy=0;exitX=0.25;exitY=0;exitDx=0;exitDy=0;startArrow=classic;startFill=1;" parent="1" source="52" target="49" edge="1">
          <mxGeometry width="50" height="50" relative="1" as="geometry">
            <mxPoint x="510" y="980" as="sourcePoint" />
            <mxPoint x="560" y="930" as="targetPoint" />
          </mxGeometry>
        </mxCell>
        <mxCell id="55" value="" style="endArrow=none;html=1;rounded=0;entryX=0;entryY=0.5;entryDx=0;entryDy=0;exitX=1;exitY=0.5;exitDx=0;exitDy=0;dashed=1;startArrow=classic;startFill=1;" parent="1" source="48" target="43" edge="1">
          <mxGeometry width="50" height="50" relative="1" as="geometry">
            <mxPoint x="510" y="930" as="sourcePoint" />
            <mxPoint x="560" y="880" as="targetPoint" />
          </mxGeometry>
        </mxCell>
        <mxCell id="62" value="" style="endArrow=none;html=1;rounded=0;entryX=0.5;entryY=1;entryDx=0;entryDy=0;exitX=0.5;exitY=0;exitDx=0;exitDy=0;startArrow=classic;startFill=1;" parent="1" source="49" target="48" edge="1">
          <mxGeometry width="50" height="50" relative="1" as="geometry">
            <mxPoint x="510" y="900" as="sourcePoint" />
            <mxPoint x="560" y="850" as="targetPoint" />
          </mxGeometry>
        </mxCell>
        <mxCell id="76" value="Services" style="rounded=0;whiteSpace=wrap;html=1;" vertex="1" parent="1">
          <mxGeometry x="308.22" y="270" width="120" height="60" as="geometry" />
        </mxCell>
        <mxCell id="77" value="Application&lt;br&gt;" style="whiteSpace=wrap;html=1;aspect=fixed;" vertex="1" parent="1">
          <mxGeometry x="590" y="240" width="120" height="120" as="geometry" />
        </mxCell>
        <mxCell id="79" value="" style="endArrow=none;dashed=1;html=1;dashPattern=1 3;strokeWidth=2;rounded=0;entryX=1;entryY=0.5;entryDx=0;entryDy=0;exitX=0;exitY=0.5;exitDx=0;exitDy=0;endFill=0;startArrow=classic;startFill=1;" edge="1" parent="1" source="77" target="76">
          <mxGeometry width="50" height="50" relative="1" as="geometry">
            <mxPoint x="460" y="480" as="sourcePoint" />
            <mxPoint x="510" y="430" as="targetPoint" />
          </mxGeometry>
        </mxCell>
        <mxCell id="80" value="Application Services/Use Case Services" style="html=1;dropTarget=0;whiteSpace=wrap;aspect=fixed;container=1;align=center;horizontal=1;verticalAlign=top;" vertex="1" parent="1">
          <mxGeometry x="160" y="690" width="600" height="210" as="geometry" />
        </mxCell>
        <mxCell id="81" value="IAppServices" style="rounded=0;whiteSpace=wrap;html=1;" vertex="1" parent="1">
          <mxGeometry x="330" y="765" width="120" height="60" as="geometry" />
        </mxCell>
        <mxCell id="82" value="" style="endArrow=none;dashed=1;html=1;dashPattern=1 3;strokeWidth=2;rounded=0;entryX=0.347;entryY=1.011;entryDx=0;entryDy=0;exitX=0.5;exitY=0;exitDx=0;exitDy=0;startArrow=classic;startFill=1;entryPerimeter=0;" edge="1" parent="1" target="8">
          <mxGeometry width="50" height="50" relative="1" as="geometry">
            <mxPoint x="345.72" y="765" as="sourcePoint" />
            <mxPoint x="323.93999999999994" y="610" as="targetPoint" />
          </mxGeometry>
        </mxCell>
        <mxCell id="83" value="" style="endArrow=none;dashed=1;html=1;dashPattern=1 3;strokeWidth=2;rounded=0;entryX=0.5;entryY=1;entryDx=0;entryDy=0;exitX=0.35;exitY=0.019;exitDx=0;exitDy=0;exitPerimeter=0;startArrow=classic;startFill=1;" edge="1" parent="1">
          <mxGeometry width="50" height="50" relative="1" as="geometry">
            <mxPoint x="379.9955" y="960.04475" as="sourcePoint" />
            <mxPoint x="382.2399999999999" y="818.5" as="targetPoint" />
          </mxGeometry>
        </mxCell>
      </root>
    </mxGraphModel>
  </diagram>
</mxfile>
